<svg id="Layer_1" enable-background="new 0 0 511.833 511.833" height="512" viewBox="0 0 511.833 511.833" width="512" xmlns="http://www.w3.org/2000/svg"><g><path d="m362.172 0h-212.512c-24.962 0-45.271 20.309-45.271 45.271v421.291c0 24.962 20.309 45.271 45.271 45.271h212.512c24.963 0 45.271-20.309 45.271-45.271v-421.291c.001-24.962-20.308-45.271-45.271-45.271zm15.272 466.562c0 8.42-6.851 15.271-15.271 15.271h-212.513c-8.42 0-15.271-6.851-15.271-15.271v-421.291c0-8.421 6.851-15.271 15.271-15.271h212.512c8.421 0 15.271 6.851 15.271 15.271v421.291z"/><circle cx="255.578" cy="436.977" r="15.099"/><path d="m230.392 89.195h50.372c8.284 0 15-6.716 15-15s-6.716-15-15-15h-50.372c-8.284 0-15 6.716-15 15s6.716 15 15 15z"/><ellipse cx="229.466" cy="304.839" rx="14.633" ry="14.633" transform="matrix(.924 -.383 .383 .924 -99.19 111.018)"/><ellipse cx="288.465" cy="304.839" rx="14.633" ry="14.633" transform="matrix(.924 -.383 .383 .924 -94.699 133.596)"/><path d="m304.045 203.205-87.261-.352-4.595-16.972c-2.436-8.998-10.647-15.281-19.969-15.281h-15.25c-20.109 0-21.055 30 0 30h8.123l18.639 68.846c2.495 9.217 10.906 15.654 20.455 15.654h68.166c9.842 0 18.26-6.697 20.471-16.283l9.751-42.221c2.679-10.516-5.876-23.5-18.53-23.391zm-18.842 51.895h-54.274l-6.014-22.213 65.356.264z"/></g></svg>